<svg id="visual" viewBox="0 0 3400 3000" width="3400" height="3000" xmlns="http://www.w3.org/2000/svg" xmlns:xlink="http://www.w3.org/1999/xlink" version="1.1"><rect x="0" y="0" width="3400" height="3000" fill="#fff"></rect><defs><linearGradient id="grad1_0" x1="11.8%" y1="0%" x2="100%" y2="100%"><stop offset="27.333333333333332%" stop-color="#ffffff" stop-opacity="1"></stop><stop offset="72.66666666666667%" stop-color="#ffffff" stop-opacity="1"></stop></linearGradient></defs><defs><linearGradient id="grad2_0" x1="0%" y1="0%" x2="88.2%" y2="100%"><stop offset="27.333333333333332%" stop-color="#ffffff" stop-opacity="1"></stop><stop offset="72.66666666666667%" stop-color="#ffffff" stop-opacity="1"></stop></linearGradient></defs><g transform="translate(3400, 0)"><path d="M0 1813.7C-96.6 1724.5 -193.1 1635.3 -327.4 1645.8C-461.6 1656.2 -633.4 1766.3 -691.9 1670.4C-750.3 1574.4 -695.4 1272.4 -808.4 1209.8C-921.3 1147.1 -1202.3 1323.9 -1282.5 1282.5C-1362.7 1241.1 -1242.1 981.6 -1258.8 841.1C-1275.6 700.6 -1429.6 679.1 -1450.5 600.8C-1471.4 522.6 -1359.3 387.6 -1397.6 278C-1436 168.4 -1624.9 84.2 -1813.7 0L0 0Z" fill="#C77DFF"></path></g><g transform="translate(0, 3000)"><path d="M0 -1813.7C117.7 -1803.6 235.3 -1793.4 348.4 -1751.7C461.5 -1709.9 570 -1636.6 624.9 -1508.7C679.8 -1380.8 681.2 -1198.3 757.8 -1134.1C834.4 -1070 986.2 -1124.1 1128.5 -1128.5C1270.8 -1133 1403.6 -1087.6 1508.1 -1007.7C1612.5 -927.7 1688.8 -813 1648.2 -682.7C1607.6 -552.4 1450.3 -406.5 1458.4 -290.1C1466.6 -173.7 1640.1 -86.9 1813.7 0L0 0Z" fill="#C77DFF"></path></g></svg>